<svg width="60" height="60" viewBox="0 0 60 60" fill="none" xmlns="http://www.w3.org/2000/svg">
<rect width="60" height="60" rx="24" fill="#262626"/>
<path d="M23.7515 30C23.7515 26.5483 26.5488 23.7495 30.0005 23.7495C33.4521 23.7495 36.251 26.5483 36.251 30C36.251 33.4516 33.4521 36.2505 30.0005 36.2505C26.5488 36.2505 23.7515 33.4516 23.7515 30ZM20.3726 30C20.3726 35.3175 24.683 39.6279 30.0005 39.6279C35.318 39.6279 39.6284 35.3175 39.6284 30C39.6284 24.6825 35.318 20.3721 30.0005 20.3721C24.683 20.3721 20.3726 24.6825 20.3726 30ZM37.7595 19.9903C37.7594 20.4354 37.8911 20.8704 38.1382 21.2405C38.3853 21.6106 38.7366 21.8992 39.1477 22.0696C39.5587 22.2401 40.0111 22.2848 40.4476 22.1982C40.8841 22.1115 41.2851 21.8974 41.5999 21.5829C41.9147 21.2683 42.1291 20.8675 42.2161 20.4311C42.3031 19.9947 42.2587 19.5422 42.0886 19.131C41.9185 18.7198 41.6302 18.3683 41.2603 18.1209C40.8904 17.8736 40.4554 17.7414 40.0104 17.7413H40.0095C39.413 17.7415 38.841 17.9785 38.4192 18.4002C37.9973 18.822 37.7601 19.3939 37.7595 19.9903ZM22.4255 45.2621C20.5974 45.1788 19.6038 44.8743 18.9435 44.6171C18.0681 44.2762 17.4435 43.8703 16.7868 43.2145C16.1301 42.5587 15.7236 41.9347 15.3843 41.0593C15.1269 40.3993 14.8224 39.4055 14.7393 37.5774C14.6484 35.601 14.6303 35.0073 14.6303 30.0002C14.6303 24.993 14.6499 24.4009 14.7393 22.4229C14.8226 20.5948 15.1293 19.6029 15.3843 18.9409C15.7251 18.0655 16.131 17.4409 16.7868 16.7843C17.4426 16.1276 18.0666 15.7211 18.9435 15.3818C19.6035 15.1244 20.5974 14.8198 22.4255 14.7367C24.4019 14.6458 24.9956 14.6277 30.0005 14.6277C35.0054 14.6277 35.5997 14.6473 37.5777 14.7367C39.4058 14.82 40.3977 15.1267 41.0597 15.3818C41.9351 15.7211 42.5597 16.1284 43.2164 16.7843C43.8731 17.4401 44.2781 18.0655 44.6189 18.9409C44.8763 19.6009 45.1808 20.5948 45.2639 22.4229C45.3548 24.4009 45.3729 24.993 45.3729 30.0002C45.3729 35.0073 45.3548 35.5993 45.2639 37.5774C45.1806 39.4055 44.8746 40.399 44.6189 41.0593C44.2781 41.9347 43.8722 42.5593 43.2164 43.2145C42.5606 43.8697 41.9351 44.2762 41.0597 44.6171C40.3997 44.8745 39.4058 45.1789 37.5777 45.2621C35.6013 45.3529 35.0076 45.3711 30.0005 45.3711C24.9933 45.3711 24.4013 45.3529 22.4255 45.2621ZM22.2702 11.3635C20.2742 11.4544 18.9102 11.7709 17.7191 12.2344C16.4855 12.7131 15.4412 13.3552 14.3976 14.3971C13.3541 15.439 12.7136 16.485 12.2349 17.7186C11.7714 18.9105 11.4549 20.2737 11.364 22.2698C11.2716 24.269 11.2505 24.9081 11.2505 30C11.2505 35.0919 11.2716 35.731 11.364 37.7302C11.4549 39.7264 11.7714 41.0895 12.2349 42.2814C12.7136 43.5142 13.3542 44.5614 14.3976 45.6028C15.441 46.6443 16.4855 47.2855 17.7191 47.7656C18.9125 48.229 20.2742 48.5455 22.2702 48.6364C24.2705 48.7273 24.9086 48.75 30.0005 48.75C35.0924 48.75 35.7315 48.7288 37.7307 48.6364C39.7269 48.5455 41.09 48.229 42.2819 47.7656C43.5147 47.2855 44.5598 46.6447 45.6033 45.6028C46.6469 44.5609 47.286 43.5142 47.766 42.2814C48.2295 41.0895 48.5475 39.7263 48.6369 37.7302C48.7278 35.7295 48.749 35.0919 48.749 30C48.749 24.9081 48.7278 24.269 48.6369 22.2698C48.546 20.2736 48.2295 18.9097 47.766 17.7186C47.286 16.4857 46.6452 15.4407 45.6033 14.3971C44.5614 13.3536 43.5147 12.7131 42.2834 12.2344C41.09 11.7709 39.7268 11.453 37.7322 11.3635C35.733 11.2727 35.0939 11.25 30.002 11.25C24.9101 11.25 24.2705 11.2712 22.2702 11.3635Z" fill="white"/>
</svg>
