<svg width="60" height="60" viewBox="0 0 60 60" fill="none" xmlns="http://www.w3.org/2000/svg">
<rect width="60" height="60" rx="24" fill="#00AFF0"/>
<path d="M47.4227 33.1229C47.4108 33.1888 47.4025 33.2553 47.39 33.3213L47.3259 32.9436C47.3609 33.0023 47.39 33.0635 47.4227 33.1229C47.6163 32.0694 47.7179 30.9909 47.7179 29.913C47.7179 27.5227 47.2499 25.2036 46.3252 23.0206C45.4332 20.9117 44.157 19.0179 42.5298 17.3918C40.905 15.7658 39.0099 14.4896 36.9023 13.5976C34.7198 12.6741 32.4007 12.2062 30.0104 12.2062C28.8838 12.2062 27.7555 12.3119 26.6574 12.5227C26.655 12.5233 26.6521 12.5233 26.6491 12.5239C26.7108 12.5565 26.7732 12.5856 26.8338 12.6195L26.4614 12.5613C26.5238 12.5494 26.5867 12.5364 26.6491 12.5239C25.1424 11.7228 23.4481 11.2952 21.733 11.2952C18.9329 11.2952 16.3003 12.3855 14.3203 14.3661C12.3409 16.346 11.25 18.9787 11.25 21.7788C11.25 23.561 11.7085 25.3129 12.569 26.8611C12.5803 26.797 12.588 26.7323 12.6005 26.6681L12.6646 27.0393C12.6313 26.9811 12.6022 26.9205 12.569 26.8611C12.3944 27.8642 12.3023 28.8892 12.3023 29.913C12.3023 32.304 12.7703 34.6224 13.695 36.8061C14.5858 38.9155 15.8626 40.8082 17.488 42.4342C19.1152 44.0602 21.0079 45.3382 23.1179 46.2279C25.3004 47.1531 27.6201 47.6217 30.0104 47.6217C31.0509 47.6217 32.0937 47.5267 33.1116 47.3461C33.0522 47.3129 32.9916 47.2826 32.9311 47.2475L33.3093 47.314C33.244 47.3265 33.1781 47.3342 33.1116 47.3461C34.68 48.2334 36.4557 48.7049 38.2688 48.7049C41.0683 48.7049 43.6997 47.6163 45.6797 45.6352C47.6602 43.6564 48.75 41.0232 48.75 38.2231C48.75 36.4349 48.2892 34.6771 47.4227 33.1229ZM30.0811 40.7577C23.7902 40.7577 20.9758 37.6648 20.9758 35.347C20.9758 34.158 21.8536 33.3248 23.0633 33.3248C25.7553 33.3248 25.0581 37.1903 30.0811 37.1903C32.6525 37.1903 34.0725 35.7941 34.0725 34.3653C34.0725 33.5059 33.6484 32.5534 31.9553 32.1359L26.3599 30.7391C21.8536 29.609 21.0358 27.1729 21.0358 24.8829C21.0358 20.1284 25.5124 18.3432 29.7164 18.3432C33.5891 18.3432 38.1542 20.4835 38.1542 23.3359C38.1542 24.5581 37.0959 25.269 35.8867 25.269C33.5891 25.269 34.0119 22.0888 29.3839 22.0888C27.0874 22.0888 25.8153 23.1286 25.8153 24.6169C25.8153 26.1022 27.629 26.5767 29.2039 26.9354L33.3456 27.8547C37.8822 28.8654 39.0325 31.5141 39.0325 34.009C39.0325 37.8727 36.0667 40.7577 30.0811 40.7577ZM32.9311 47.2475C32.9916 47.2826 33.0522 47.3129 33.1116 47.3461C33.1781 47.3342 33.244 47.3265 33.3093 47.314L32.9311 47.2475ZM47.39 33.3213C47.4025 33.2553 47.4108 33.1888 47.4227 33.1229C47.39 33.0635 47.3609 33.0023 47.3259 32.9436L47.39 33.3213ZM12.6005 26.6681C12.588 26.7323 12.5803 26.797 12.569 26.8611C12.6022 26.9205 12.6313 26.9811 12.6646 27.0393L12.6005 26.6681ZM26.8338 12.6195C26.7732 12.5856 26.7108 12.5565 26.6491 12.5239C26.5867 12.5364 26.5238 12.5494 26.4614 12.5613L26.8338 12.6195Z" fill="white"/>
</svg>
