<svg width="60" height="60" viewBox="0 0 60 60" fill="none" xmlns="http://www.w3.org/2000/svg">
<rect width="60" height="60" rx="24" fill="#419FD9"/>
<rect width="60" height="60" rx="24" fill="url(#paint0_linear_132_1969)"/>
<path d="M13.4842 29.3387C22.2083 25.4578 28.0258 22.8993 30.9366 21.6632C39.2474 18.1338 40.9744 17.5207 42.0999 17.5002C42.3475 17.496 42.901 17.5586 43.2596 17.8557C43.5623 18.1065 43.6456 18.4453 43.6855 18.6831C43.7254 18.9209 43.775 19.4627 43.7355 19.886C43.2852 24.7175 41.3364 36.4423 40.345 41.8537C39.9255 44.1435 39.0995 44.9112 38.2998 44.9864C36.562 45.1497 35.2423 43.8137 33.5591 42.6872C30.9252 40.9243 29.4372 39.8269 26.8805 38.1067C23.9259 36.1187 25.8412 35.0261 27.5251 33.2404C27.9658 32.7731 35.6229 25.6619 35.7711 25.0168C35.7896 24.9362 35.8068 24.6354 35.6319 24.4766C35.4569 24.3178 35.1986 24.3721 35.0123 24.4153C34.7481 24.4765 30.5404 27.3161 22.3892 32.9341C21.1948 33.7714 20.113 34.1794 19.1438 34.1581C18.0752 34.1345 16.0198 33.5412 14.4918 33.0341C12.6177 32.4121 11.1282 32.0832 11.2579 31.0268C11.3254 30.4766 12.0675 29.9139 13.4842 29.3387Z" fill="white"/>
<defs>
<linearGradient id="paint0_linear_132_1969" x1="30" y1="0" x2="30" y2="59.5548" gradientUnits="userSpaceOnUse">
<stop stop-color="#2AABEE"/>
<stop offset="1" stop-color="#229ED9"/>
</linearGradient>
</defs>
</svg>
