<svg width="60" height="60" viewBox="0 0 60 60" fill="none" xmlns="http://www.w3.org/2000/svg">
<rect width="60" height="60" rx="24" fill="#5181B8"/>
<path fill-rule="evenodd" clip-rule="evenodd" d="M49.0822 20.6683C49.3604 19.7412 49.0822 19.0598 47.7588 19.0598H43.3828C42.27 19.0598 41.7574 19.6484 41.4792 20.2976C41.4792 20.2976 39.2537 25.7217 36.1011 29.245C35.0812 30.2649 34.6176 30.5891 34.0612 30.5891C33.783 30.5891 33.3805 30.2649 33.3805 29.3378V20.6683C33.3805 19.5556 33.0576 19.0598 32.1302 19.0598H25.2536C24.5584 19.0598 24.1402 19.5762 24.1402 20.0657C24.1402 21.1206 25.7162 21.3638 25.8787 24.3307V30.775C25.8787 32.1879 25.6236 32.4442 25.0673 32.4442C23.5838 32.4442 19.9755 26.9954 17.835 20.7611C17.4155 19.5493 16.9948 19.0598 15.8764 19.0598H11.5003C10.2501 19.0598 10 19.6484 10 20.2976C10 21.4566 11.4838 27.2055 16.9079 34.8085C20.5243 40.0003 25.6186 42.8154 30.2547 42.8154C33.0366 42.8154 33.3805 42.1902 33.3805 41.1134V37.189C33.3805 35.9388 33.644 35.6893 34.5245 35.6893C35.174 35.6893 36.2864 36.0138 38.883 38.5172C41.8499 41.4838 42.3388 42.8154 44.0079 42.8154H48.384C49.6342 42.8154 50.2594 42.1902 49.8987 40.9565C49.5042 39.7268 48.0876 37.9433 46.2078 35.8284C45.1879 34.6228 43.6579 33.3247 43.1946 32.6758C42.5454 31.8412 42.7308 31.4705 43.1946 30.7291C43.1946 30.7291 48.5259 23.2186 49.0822 20.6686V20.6683Z" fill="white"/>
</svg>
