<svg width="60" height="60" viewBox="0 0 60 60" fill="none" xmlns="http://www.w3.org/2000/svg">
<rect width="60" height="60" rx="24" fill="#FF0000"/>
<path fill-rule="evenodd" clip-rule="evenodd" d="M44.6724 17.675C46.2787 18.1074 47.5452 19.3739 47.9776 20.9801C48.7807 23.9146 48.7498 30.0308 48.7498 30.0308C48.7498 30.0308 48.7498 36.116 47.9776 39.0505C47.5452 40.6567 46.2787 41.9232 44.6724 42.3557C41.7379 43.1279 29.9999 43.1279 29.9999 43.1279C29.9999 43.1279 18.2928 43.1279 15.3274 42.3248C13.7212 41.8923 12.4547 40.6258 12.0222 39.0196C11.25 36.116 11.25 29.9999 11.25 29.9999C11.25 29.9999 11.25 23.9146 12.0222 20.9801C12.4547 19.3739 13.752 18.0765 15.3274 17.6441C18.2619 16.8718 29.9999 16.8718 29.9999 16.8718C29.9999 16.8718 41.7379 16.8718 44.6724 17.675ZM36.0233 29.9999L26.2623 35.6218V24.378L36.0233 29.9999Z" fill="white"/>
</svg>
